<mxfile host="drawio.benjamin-hacker.de" agent="Mozilla/5.0 (Windows NT 10.0; Win64; x64; rv:137.0) Gecko/20100101 Firefox/137.0" version="26.2.2">
  <diagram name="Page-1" id="wBdlQIouIhz5Xwdgnj0F">
    <mxGraphModel dx="985" dy="516" grid="1" gridSize="10" guides="1" tooltips="1" connect="1" arrows="1" fold="1" page="1" pageScale="1" pageWidth="827" pageHeight="1169" math="0" shadow="0">
      <root>
        <mxCell id="0" />
        <mxCell id="1" parent="0" />
        <mxCell id="Dr6D4wt1tkrjQisyw7Ro-20" value="" style="rounded=0;whiteSpace=wrap;html=1;fillColor=default;strokeColor=light-dark(#d4d4d4, #ededed);opacity=80;" vertex="1" parent="1">
          <mxGeometry x="10" width="730" height="620" as="geometry" />
        </mxCell>
        <mxCell id="Dr6D4wt1tkrjQisyw7Ro-26" value="" style="endArrow=none;html=1;rounded=0;" edge="1" parent="1" source="3b3fap4kVztS4zhXD_Z2-1" target="Dr6D4wt1tkrjQisyw7Ro-25">
          <mxGeometry width="50" height="50" relative="1" as="geometry">
            <mxPoint x="219" y="189" as="sourcePoint" />
            <mxPoint x="384" y="286" as="targetPoint" />
          </mxGeometry>
        </mxCell>
        <mxCell id="Dr6D4wt1tkrjQisyw7Ro-1" value="" style="rounded=0;whiteSpace=wrap;html=1;fillColor=none;" vertex="1" parent="1">
          <mxGeometry x="309" y="70" width="401" height="520" as="geometry" />
        </mxCell>
        <mxCell id="Dr6D4wt1tkrjQisyw7Ro-2" value="Recruiting Management System" style="text;html=1;align=center;verticalAlign=middle;whiteSpace=wrap;rounded=0;" vertex="1" parent="1">
          <mxGeometry x="389" y="70" width="210" height="30" as="geometry" />
        </mxCell>
        <mxCell id="Dr6D4wt1tkrjQisyw7Ro-5" value="" style="endArrow=none;html=1;rounded=0;" edge="1" parent="1" source="3b3fap4kVztS4zhXD_Z2-1" target="Dr6D4wt1tkrjQisyw7Ro-3">
          <mxGeometry width="50" height="50" relative="1" as="geometry">
            <mxPoint x="479" y="330" as="sourcePoint" />
            <mxPoint x="529" y="280" as="targetPoint" />
          </mxGeometry>
        </mxCell>
        <mxCell id="Dr6D4wt1tkrjQisyw7Ro-10" value="" style="endArrow=none;html=1;rounded=0;" edge="1" parent="1" source="3b3fap4kVztS4zhXD_Z2-1" target="Dr6D4wt1tkrjQisyw7Ro-9">
          <mxGeometry width="50" height="50" relative="1" as="geometry">
            <mxPoint x="219" y="183" as="sourcePoint" />
            <mxPoint x="364" y="216" as="targetPoint" />
          </mxGeometry>
        </mxCell>
        <mxCell id="Dr6D4wt1tkrjQisyw7Ro-12" value="" style="endArrow=none;html=1;rounded=0;" edge="1" parent="1" source="3b3fap4kVztS4zhXD_Z2-1" target="Dr6D4wt1tkrjQisyw7Ro-11">
          <mxGeometry width="50" height="50" relative="1" as="geometry">
            <mxPoint x="219" y="186" as="sourcePoint" />
            <mxPoint x="432" y="275" as="targetPoint" />
          </mxGeometry>
        </mxCell>
        <mxCell id="Dr6D4wt1tkrjQisyw7Ro-17" value="Determine position requirements" style="shape=ellipse;html=1;strokeWidth=2;fontStyle=1;whiteSpace=wrap;align=center;perimeter=ellipsePerimeter;" vertex="1" parent="1">
          <mxGeometry x="120" y="220" width="130" height="55" as="geometry" />
        </mxCell>
        <mxCell id="Dr6D4wt1tkrjQisyw7Ro-19" value="&lt;blockquote&gt;&lt;div align=&quot;left&quot;&gt;Use Case Diagramm&lt;/div&gt;&lt;/blockquote&gt;" style="swimlane;whiteSpace=wrap;html=1;align=left;" vertex="1" parent="1">
          <mxGeometry x="20" y="10" width="800" height="600" as="geometry" />
        </mxCell>
        <mxCell id="3b3fap4kVztS4zhXD_Z2-2" value="&lt;span lang=&quot;en&quot; class=&quot;HwtZe&quot;&gt;&lt;span class=&quot;jCAhz ChMk0b&quot;&gt;&lt;span class=&quot;ryNqvb&quot;&gt;Applicant&lt;/span&gt;&lt;/span&gt;&lt;/span&gt;" style="shape=umlActor;verticalLabelPosition=bottom;verticalAlign=top;html=1;outlineConnect=0;" parent="Dr6D4wt1tkrjQisyw7Ro-19" vertex="1">
          <mxGeometry x="140" y="460" width="30" height="60" as="geometry" />
        </mxCell>
        <mxCell id="3b3fap4kVztS4zhXD_Z2-1" value="&lt;div&gt;HR Recruiter&lt;/div&gt;" style="shape=umlActor;verticalLabelPosition=bottom;verticalAlign=top;html=1;outlineConnect=0;" parent="Dr6D4wt1tkrjQisyw7Ro-19" vertex="1">
          <mxGeometry x="190" y="330" width="30" height="60" as="geometry" />
        </mxCell>
        <mxCell id="Dr6D4wt1tkrjQisyw7Ro-8" value="" style="endArrow=none;html=1;rounded=0;" edge="1" parent="Dr6D4wt1tkrjQisyw7Ro-19" source="3b3fap4kVztS4zhXD_Z2-1" target="Dr6D4wt1tkrjQisyw7Ro-7">
          <mxGeometry width="50" height="50" relative="1" as="geometry">
            <mxPoint x="199" y="169" as="sourcePoint" />
            <mxPoint x="339" y="161" as="targetPoint" />
          </mxGeometry>
        </mxCell>
        <mxCell id="Dr6D4wt1tkrjQisyw7Ro-30" value="Hiring Manager" style="shape=umlActor;html=1;verticalLabelPosition=bottom;verticalAlign=top;align=center;" vertex="1" parent="Dr6D4wt1tkrjQisyw7Ro-19">
          <mxGeometry x="70" y="50" width="30" height="60" as="geometry" />
        </mxCell>
        <mxCell id="Dr6D4wt1tkrjQisyw7Ro-31" value="QA of Job Postings" style="shape=ellipse;html=1;strokeWidth=2;fontStyle=1;whiteSpace=wrap;align=center;perimeter=ellipsePerimeter;" vertex="1" parent="Dr6D4wt1tkrjQisyw7Ro-19">
          <mxGeometry x="534" y="120" width="110" height="55" as="geometry" />
        </mxCell>
        <mxCell id="Dr6D4wt1tkrjQisyw7Ro-38" value="View a single job posting" style="shape=ellipse;html=1;strokeWidth=2;fontStyle=1;whiteSpace=wrap;align=center;perimeter=ellipsePerimeter;" vertex="1" parent="Dr6D4wt1tkrjQisyw7Ro-19">
          <mxGeometry x="324" y="230" width="120" height="65" as="geometry" />
        </mxCell>
        <mxCell id="Dr6D4wt1tkrjQisyw7Ro-39" value="" style="endArrow=none;html=1;rounded=0;" edge="1" parent="Dr6D4wt1tkrjQisyw7Ro-19" source="Dr6D4wt1tkrjQisyw7Ro-30" target="Dr6D4wt1tkrjQisyw7Ro-38">
          <mxGeometry width="50" height="50" relative="1" as="geometry">
            <mxPoint x="110" y="100" as="sourcePoint" />
            <mxPoint x="347" y="251" as="targetPoint" />
          </mxGeometry>
        </mxCell>
        <mxCell id="Dr6D4wt1tkrjQisyw7Ro-40" value="" style="endArrow=none;html=1;rounded=0;" edge="1" parent="Dr6D4wt1tkrjQisyw7Ro-19" source="3b3fap4kVztS4zhXD_Z2-1" target="Dr6D4wt1tkrjQisyw7Ro-38">
          <mxGeometry width="50" height="50" relative="1" as="geometry">
            <mxPoint x="110" y="95" as="sourcePoint" />
            <mxPoint x="400" y="200" as="targetPoint" />
          </mxGeometry>
        </mxCell>
        <mxCell id="Dr6D4wt1tkrjQisyw7Ro-7" value="Screen applications" style="shape=ellipse;html=1;strokeWidth=2;fontStyle=1;whiteSpace=wrap;align=center;perimeter=ellipsePerimeter;" vertex="1" parent="Dr6D4wt1tkrjQisyw7Ro-19">
          <mxGeometry x="330" y="470" width="126" height="60" as="geometry" />
        </mxCell>
        <mxCell id="Dr6D4wt1tkrjQisyw7Ro-59" value="" style="endArrow=none;html=1;rounded=0;" edge="1" parent="Dr6D4wt1tkrjQisyw7Ro-19" source="3b3fap4kVztS4zhXD_Z2-2" target="Dr6D4wt1tkrjQisyw7Ro-38">
          <mxGeometry width="50" height="50" relative="1" as="geometry">
            <mxPoint x="220" y="499" as="sourcePoint" />
            <mxPoint x="311" y="492" as="targetPoint" />
          </mxGeometry>
        </mxCell>
        <mxCell id="Dr6D4wt1tkrjQisyw7Ro-4" value="Apply to job posting" style="shape=ellipse;html=1;strokeWidth=2;fontStyle=1;whiteSpace=wrap;align=center;perimeter=ellipsePerimeter;" vertex="1" parent="Dr6D4wt1tkrjQisyw7Ro-19">
          <mxGeometry x="560" y="240" width="110" height="55" as="geometry" />
        </mxCell>
        <mxCell id="Dr6D4wt1tkrjQisyw7Ro-60" value="&amp;lt;&amp;lt;extend&amp;gt;&amp;gt;" style="edgeStyle=none;html=1;startArrow=open;endArrow=none;startSize=12;verticalAlign=bottom;dashed=1;labelBackgroundColor=none;rounded=0;" edge="1" parent="Dr6D4wt1tkrjQisyw7Ro-19" source="Dr6D4wt1tkrjQisyw7Ro-38" target="Dr6D4wt1tkrjQisyw7Ro-4">
          <mxGeometry width="160" relative="1" as="geometry">
            <mxPoint x="290" y="340" as="sourcePoint" />
            <mxPoint x="450" y="340" as="targetPoint" />
          </mxGeometry>
        </mxCell>
        <mxCell id="Dr6D4wt1tkrjQisyw7Ro-13" value="Invite applicant to job interview" style="shape=ellipse;html=1;strokeWidth=2;fontStyle=1;whiteSpace=wrap;align=center;perimeter=ellipsePerimeter;" vertex="1" parent="Dr6D4wt1tkrjQisyw7Ro-19">
          <mxGeometry x="530" y="430" width="138" height="60" as="geometry" />
        </mxCell>
        <mxCell id="Dr6D4wt1tkrjQisyw7Ro-64" value="&amp;lt;&amp;lt;include&amp;gt;&amp;gt;" style="edgeStyle=none;html=1;endArrow=open;verticalAlign=bottom;dashed=1;labelBackgroundColor=none;rounded=0;" edge="1" parent="Dr6D4wt1tkrjQisyw7Ro-19" source="Dr6D4wt1tkrjQisyw7Ro-7" target="Dr6D4wt1tkrjQisyw7Ro-13">
          <mxGeometry width="160" relative="1" as="geometry">
            <mxPoint x="290" y="320" as="sourcePoint" />
            <mxPoint x="450" y="320" as="targetPoint" />
          </mxGeometry>
        </mxCell>
        <mxCell id="Dr6D4wt1tkrjQisyw7Ro-25" value="Archive completed job postings" style="shape=ellipse;html=1;strokeWidth=2;fontStyle=1;whiteSpace=wrap;align=center;perimeter=ellipsePerimeter;" vertex="1" parent="1">
          <mxGeometry x="389" y="405" width="138" height="60" as="geometry" />
        </mxCell>
        <mxCell id="Dr6D4wt1tkrjQisyw7Ro-27" value="Conduct interviews " style="shape=ellipse;html=1;strokeWidth=2;fontStyle=1;whiteSpace=wrap;align=center;perimeter=ellipsePerimeter;" vertex="1" parent="1">
          <mxGeometry x="40" y="330" width="138" height="60" as="geometry" />
        </mxCell>
        <mxCell id="Dr6D4wt1tkrjQisyw7Ro-28" value="" style="endArrow=none;html=1;rounded=0;" edge="1" parent="1" source="3b3fap4kVztS4zhXD_Z2-2" target="Dr6D4wt1tkrjQisyw7Ro-27">
          <mxGeometry width="50" height="50" relative="1" as="geometry">
            <mxPoint x="219" y="365" as="sourcePoint" />
            <mxPoint x="479" y="450" as="targetPoint" />
          </mxGeometry>
        </mxCell>
        <mxCell id="Dr6D4wt1tkrjQisyw7Ro-29" value="" style="endArrow=none;html=1;rounded=0;" edge="1" parent="1" source="3b3fap4kVztS4zhXD_Z2-1" target="Dr6D4wt1tkrjQisyw7Ro-27">
          <mxGeometry width="50" height="50" relative="1" as="geometry">
            <mxPoint x="189" y="345" as="sourcePoint" />
            <mxPoint x="157" y="313" as="targetPoint" />
          </mxGeometry>
        </mxCell>
        <mxCell id="Dr6D4wt1tkrjQisyw7Ro-33" value="" style="endArrow=none;html=1;rounded=0;" edge="1" parent="1" source="Dr6D4wt1tkrjQisyw7Ro-9" target="Dr6D4wt1tkrjQisyw7Ro-30">
          <mxGeometry width="50" height="50" relative="1" as="geometry">
            <mxPoint x="148" y="190" as="sourcePoint" />
            <mxPoint x="230" y="105" as="targetPoint" />
          </mxGeometry>
        </mxCell>
        <mxCell id="Dr6D4wt1tkrjQisyw7Ro-34" value="" style="endArrow=none;html=1;rounded=0;" edge="1" parent="1" source="Dr6D4wt1tkrjQisyw7Ro-27">
          <mxGeometry width="50" height="50" relative="1" as="geometry">
            <mxPoint x="194" y="163" as="sourcePoint" />
            <mxPoint x="105" y="150" as="targetPoint" />
          </mxGeometry>
        </mxCell>
        <mxCell id="Dr6D4wt1tkrjQisyw7Ro-3" value="Schedule job posting" style="shape=ellipse;html=1;strokeWidth=2;fontStyle=1;whiteSpace=wrap;align=center;perimeter=ellipsePerimeter;" vertex="1" parent="1">
          <mxGeometry x="359" y="165" width="110" height="55" as="geometry" />
        </mxCell>
        <mxCell id="Dr6D4wt1tkrjQisyw7Ro-48" value="" style="endArrow=none;html=1;rounded=0;" edge="1" parent="1" source="Dr6D4wt1tkrjQisyw7Ro-30" target="Dr6D4wt1tkrjQisyw7Ro-11">
          <mxGeometry width="50" height="50" relative="1" as="geometry">
            <mxPoint x="250" y="375" as="sourcePoint" />
            <mxPoint x="370" y="335" as="targetPoint" />
          </mxGeometry>
        </mxCell>
        <mxCell id="Dr6D4wt1tkrjQisyw7Ro-9" value="Document position requirements" style="shape=ellipse;html=1;strokeWidth=2;fontStyle=1;whiteSpace=wrap;align=center;perimeter=ellipsePerimeter;" vertex="1" parent="1">
          <mxGeometry x="330" y="100" width="130" height="55" as="geometry" />
        </mxCell>
        <mxCell id="Dr6D4wt1tkrjQisyw7Ro-11" value="&lt;div&gt;List job postings&lt;/div&gt;" style="shape=ellipse;html=1;strokeWidth=2;fontStyle=1;whiteSpace=wrap;align=center;perimeter=ellipsePerimeter;" vertex="1" parent="1">
          <mxGeometry x="350" y="320" width="110" height="55" as="geometry" />
        </mxCell>
        <mxCell id="Dr6D4wt1tkrjQisyw7Ro-62" value="&amp;lt;&amp;lt;include&amp;gt;&amp;gt;" style="edgeStyle=none;html=1;endArrow=open;verticalAlign=bottom;dashed=1;labelBackgroundColor=none;rounded=0;" edge="1" parent="1" source="Dr6D4wt1tkrjQisyw7Ro-9" target="Dr6D4wt1tkrjQisyw7Ro-17">
          <mxGeometry width="160" relative="1" as="geometry">
            <mxPoint x="310" y="330" as="sourcePoint" />
            <mxPoint x="470" y="330" as="targetPoint" />
          </mxGeometry>
        </mxCell>
        <mxCell id="Dr6D4wt1tkrjQisyw7Ro-63" value="&amp;lt;&amp;lt;include&amp;gt;&amp;gt;" style="edgeStyle=none;html=1;endArrow=open;verticalAlign=bottom;dashed=1;labelBackgroundColor=none;rounded=0;" edge="1" parent="1" source="Dr6D4wt1tkrjQisyw7Ro-3" target="Dr6D4wt1tkrjQisyw7Ro-31">
          <mxGeometry x="-0.2623" y="-3" width="160" relative="1" as="geometry">
            <mxPoint x="310" y="330" as="sourcePoint" />
            <mxPoint x="470" y="330" as="targetPoint" />
            <mxPoint as="offset" />
          </mxGeometry>
        </mxCell>
        <mxCell id="Dr6D4wt1tkrjQisyw7Ro-16" value="" style="endArrow=none;html=1;rounded=0;" edge="1" parent="1" source="3b3fap4kVztS4zhXD_Z2-2" target="Dr6D4wt1tkrjQisyw7Ro-11">
          <mxGeometry width="50" height="50" relative="1" as="geometry">
            <mxPoint x="219" y="364" as="sourcePoint" />
            <mxPoint x="427.0743744745621" y="520.8781652717319" as="targetPoint" />
          </mxGeometry>
        </mxCell>
        <mxCell id="Dr6D4wt1tkrjQisyw7Ro-83" value="&lt;div&gt;List archived job postings&lt;/div&gt;" style="shape=ellipse;html=1;strokeWidth=2;fontStyle=1;whiteSpace=wrap;align=center;perimeter=ellipsePerimeter;" vertex="1" parent="1">
          <mxGeometry x="549" y="350" width="110" height="55" as="geometry" />
        </mxCell>
        <mxCell id="Dr6D4wt1tkrjQisyw7Ro-85" value="&amp;lt;&amp;lt;include&amp;gt;&amp;gt;" style="edgeStyle=none;html=1;endArrow=open;verticalAlign=bottom;dashed=1;labelBackgroundColor=none;rounded=0;" edge="1" parent="1" source="Dr6D4wt1tkrjQisyw7Ro-11" target="Dr6D4wt1tkrjQisyw7Ro-83">
          <mxGeometry x="0.1415" y="-2" width="160" relative="1" as="geometry">
            <mxPoint x="557" y="305" as="sourcePoint" />
            <mxPoint x="602" y="312" as="targetPoint" />
            <mxPoint as="offset" />
          </mxGeometry>
        </mxCell>
        <mxCell id="Dr6D4wt1tkrjQisyw7Ro-86" value="Notify the applicant of their rejection" style="shape=ellipse;html=1;strokeWidth=2;fontStyle=1;whiteSpace=wrap;align=center;perimeter=ellipsePerimeter;" vertex="1" parent="1">
          <mxGeometry x="549" y="525" width="148" height="60" as="geometry" />
        </mxCell>
        <mxCell id="Dr6D4wt1tkrjQisyw7Ro-87" value="&amp;lt;&amp;lt;include&amp;gt;&amp;gt;" style="edgeStyle=none;html=1;endArrow=open;verticalAlign=bottom;dashed=1;labelBackgroundColor=none;rounded=0;" edge="1" parent="1" source="Dr6D4wt1tkrjQisyw7Ro-7" target="Dr6D4wt1tkrjQisyw7Ro-86">
          <mxGeometry width="160" relative="1" as="geometry">
            <mxPoint x="481" y="509" as="sourcePoint" />
            <mxPoint x="566" y="492" as="targetPoint" />
          </mxGeometry>
        </mxCell>
      </root>
    </mxGraphModel>
  </diagram>
</mxfile>
